<svg xmlns="http://www.w3.org/2000/svg" width="682.667" height="682.667" preserveAspectRatio="xMidYMid meet" version="1.0" viewBox="0 0 512 512"><metadata>Created by potrace 1.14, written by Peter Selinger 2001-2017</metadata><g fill="#000" stroke="none"><path d="M2745 4580 c-16 -4 -40 -12 -52 -19 -22 -11 -23 -15 -19 -134 l5 -122 -160 -415 c-88 -228 -177 -460 -198 -515 -22 -55 -167 -431 -322 -835 -155 -404 -340 -885 -411 -1069 -118 -309 -151 -414 -143 -466 2 -11 6 -42 10 -70 11 -79 59 -169 124 -234 55 -55 149 -111 186 -111 9 0 14 -4 11 -9 -3 -4 45 -7 107 -6 91 1 121 6 161 24 27 12 56 19 63 17 8 -3 12 -2 9 2 -2 4 12 19 32 32 79 53 124 117 174 245 19 50 39 99 43 110 5 11 9 22 9 25 1 6 23 61 42 105 7 17 36 94 65 172 30 78 58 139 63 136 5 -4 6 -1 3 4 -8 13 22 103 35 103 5 0 7 4 4 8 -3 5 22 77 54 161 33 84 63 164 66 177 5 18 11 23 23 19 12 -5 13 -3 5 5 -9 9 -4 33 18 93 17 45 32 90 35 100 3 9 9 17 12 17 4 0 8 6 8 13 0 16 143 391 151 397 4 3 8 12 9 20 3 26 55 164 68 180 7 8 10 21 8 28 -3 6 0 12 6 12 6 0 10 3 9 8 -2 8 9 48 22 77 6 11 32 81 60 155 28 74 55 143 60 152 6 10 10 23 10 28 0 6 9 30 19 53 11 24 23 55 26 70 4 15 12 24 18 20 5 -3 7 -1 4 4 -8 13 22 103 35 103 5 0 7 4 4 8 -5 9 31 113 42 122 4 3 8 12 9 20 7 43 143 375 153 372 6 -1 8 2 5 8 -8 14 34 62 47 54 5 -3 7 -2 6 3 -6 16 41 65 54 57 7 -4 10 -4 6 1 -4 4 3 20 16 36 32 38 24 72 -34 130 -58 59 -148 118 -265 174 -86 41 -251 102 -301 111 -13 2 -34 8 -46 13 -13 5 -26 9 -31 9 -4 1 -26 4 -50 7 -65 10 -149 12 -182 5z" transform="translate(0.000000,512.000000) scale(0.100000,-0.100000)"/></g></svg>